<svg width="287" height="273" viewBox="0 0 287 273" fill="none" xmlns="http://www.w3.org/2000/svg">
    <path d="M136.563 273.001C205.216 273.001 260.869 226.68 260.869 169.54C260.869 112.4 205.216 66.0791 136.563 66.0791C67.911 66.0791 12.2573 112.4 12.2573 169.54C12.2573 226.68 67.911 273.001 136.563 273.001Z"
          fill="white"/>
    <path d="M1.08833 83.9419C-0.101166 80.7443 -0.315589 77.2657 0.472181 73.9463C1.25995 70.6268 3.01453 67.6155 5.51396 65.2933C8.01339 62.9712 11.1454 61.4425 14.5138 60.9006C17.8821 60.3587 21.3355 60.828 24.4372 62.2491C27.5388 63.6702 30.1492 65.9793 31.9384 68.8842C33.7275 71.7891 34.6148 75.1594 34.4882 78.5687C34.3616 81.9781 33.2267 85.2733 31.227 88.0375C29.2274 90.8017 26.4528 92.9108 23.2543 94.0979C18.9681 95.6888 14.2255 95.5126 10.0691 93.6082C5.91261 91.7038 2.68237 88.227 1.08833 83.9419Z"
          fill="#FF861D"/>
    <path d="M26.2403 79.0528C24.2603 84.5778 18.4673 88.3898 18.4673 88.3898C18.4673 88.3898 11.9253 86.0108 8.76133 81.0988C6.09733 76.9988 6.91133 72.1358 10.1943 70.7088C14.8943 68.6628 17.1413 77.0088 17.1413 77.0088C17.1413 77.0088 17.3973 68.3728 22.4523 69.2768C25.9733 69.9058 27.8883 74.4258 26.2403 79.0528Z"
          fill="white"/>
    <path d="M189.385 4.55078H88.8753C87.5268 4.56242 86.1937 4.83967 84.9524 5.36669C83.711 5.89371 82.5857 6.66017 81.6407 7.62228C80.6957 8.58438 79.9495 9.72327 79.4448 10.9739C78.9401 12.2245 78.6868 13.5622 78.6993 14.9108V221.88C78.6756 224.603 79.7342 227.224 81.6424 229.167C83.5507 231.109 86.1523 232.215 88.8753 232.24H189.385C192.11 232.216 194.714 231.112 196.624 229.169C198.535 227.226 199.595 224.604 199.573 221.88V14.9108C199.585 13.5615 199.331 12.223 198.825 10.972C198.319 9.72101 197.572 8.58191 196.626 7.6198C195.68 6.6577 194.553 5.89146 193.311 5.36486C192.069 4.83826 190.735 4.56163 189.385 4.55078ZM193.209 215.487C193.209 220.935 189.129 225.342 184.104 225.342H94.1563C89.1073 225.342 85.0333 220.935 85.0333 215.487V22.7558C85.0333 11.6558 89.1073 11.1168 94.1563 11.1168H112.171C113.218 11.1168 114.071 12.3058 114.071 13.7808V14.4168C114.071 17.8718 115.962 17.8838 118.288 17.8838H159.92C162.299 17.8838 164.137 17.8838 164.137 14.4168V13.7808C164.137 12.3058 164.982 11.1168 166.052 11.1168H184.073C189.099 11.1168 193.178 12.5918 193.178 22.7558L193.209 215.487Z"
          fill="#263238"/>
    <path d="M144.803 13.568H133.438C133.253 13.568 133.075 13.4942 132.943 13.3629C132.812 13.2317 132.738 13.0536 132.738 12.868C132.738 12.776 132.756 12.685 132.792 12.6001C132.827 12.5152 132.878 12.438 132.943 12.373C133.008 12.308 133.085 12.2564 133.17 12.2213C133.255 12.1861 133.346 12.168 133.438 12.168H144.803C144.895 12.168 144.986 12.1861 145.071 12.2213C145.156 12.2564 145.233 12.308 145.298 12.373C145.363 12.438 145.415 12.5152 145.45 12.6001C145.485 12.685 145.503 12.776 145.503 12.868C145.503 13.0536 145.43 13.2317 145.298 13.3629C145.167 13.4942 144.989 13.568 144.803 13.568Z"
          fill="white"/>
    <path d="M193.209 22.7567V215.487C193.209 220.935 189.129 225.342 184.104 225.342H94.1553C89.1063 225.342 85.0323 220.935 85.0323 215.487V22.7567C85.0323 11.6567 89.1063 11.1177 94.1553 11.1177H112.17C113.217 11.1177 114.07 12.3067 114.07 13.7817V14.4177C114.07 17.8727 115.961 17.8847 118.287 17.8847H159.919C162.298 17.8847 164.136 17.8847 164.136 14.4177V13.7817C164.136 12.3067 164.981 11.1177 166.051 11.1177H184.072C189.129 11.1407 193.209 12.5917 193.209 22.7567Z"
          fill="white"/>
    <path d="M193.21 22.7567V37.1367H85.0033V22.7567C85.0033 11.6567 89.1033 11.1417 94.1503 11.1417H112.171C113.218 11.1417 114.071 12.3307 114.071 13.8057V14.4417C114.071 17.8967 115.962 17.9087 118.282 17.9087H159.937C162.28 17.9087 164.16 17.9087 164.16 14.4417V13.7817C164.16 12.3067 165.005 11.1177 166.069 11.1177H184.084C189.13 11.1407 193.21 12.5917 193.21 22.7567Z"
          fill="url(#paint0_linear_1_7239)"/>
    <path d="M95.2763 30.1187L92.0823 27.1187L95.2763 24.1187L95.7703 24.6477L93.1413 27.1157L95.7763 29.5937L95.2763 30.1187Z"
          fill="white"/>
    <path d="M183.396 30.327H181.255V29.578C181.255 29.5446 181.245 29.512 181.228 29.4837C181.21 29.4553 181.185 29.4323 181.155 29.417C181.072 29.375 180.994 29.328 180.917 29.28C180.889 29.2627 180.856 29.2536 180.822 29.2536C180.789 29.2536 180.756 29.2627 180.727 29.28L180.085 29.649L179.014 27.799L179.662 27.424C179.691 27.4071 179.714 27.3824 179.728 27.3527C179.743 27.3231 179.749 27.2899 179.745 27.257C179.742 27.2114 179.742 27.1656 179.745 27.12C179.742 27.0744 179.742 27.0286 179.745 26.983C179.749 26.9501 179.743 26.9169 179.728 26.8873C179.714 26.8577 179.691 26.8329 179.662 26.816L179.014 26.441L180.085 24.591L180.727 24.96C180.756 24.9773 180.789 24.9864 180.822 24.9864C180.856 24.9864 180.889 24.9773 180.917 24.96C180.994 24.912 181.072 24.86 181.155 24.823C181.185 24.8078 181.21 24.7847 181.228 24.7564C181.245 24.728 181.255 24.6954 181.255 24.662V23.916H183.396V24.659C183.397 24.6924 183.406 24.725 183.424 24.7534C183.442 24.7817 183.467 24.8048 183.496 24.82L183.734 24.957C183.763 24.9743 183.796 24.9834 183.829 24.9834C183.863 24.9834 183.896 24.9743 183.924 24.957L184.566 24.588L185.632 26.436L184.99 26.811C184.961 26.8277 184.938 26.8522 184.922 26.8817C184.906 26.9112 184.899 26.9446 184.901 26.978C184.904 27.0236 184.904 27.0694 184.901 27.115V27.246C184.896 27.2797 184.901 27.3143 184.916 27.345C184.931 27.3758 184.955 27.4013 184.984 27.418L185.626 27.793L184.561 29.643L183.913 29.274C183.886 29.2566 183.854 29.2473 183.821 29.2473C183.789 29.2473 183.757 29.2566 183.729 29.274L183.491 29.411C183.462 29.4262 183.437 29.4493 183.419 29.4776C183.401 29.506 183.392 29.5386 183.391 29.572L183.396 30.327ZM181.701 29.881H182.95V29.581C182.95 29.4657 182.982 29.3527 183.042 29.2541C183.101 29.1555 183.187 29.0753 183.289 29.022C183.359 28.9901 183.426 28.9523 183.489 28.909C183.587 28.8457 183.7 28.8121 183.816 28.8121C183.932 28.8121 184.046 28.8457 184.143 28.909L184.399 29.058L185.024 27.976L184.762 27.827C184.659 27.7686 184.576 27.6809 184.522 27.575C184.469 27.4691 184.448 27.3497 184.462 27.232V27.006C184.449 26.8873 184.471 26.7673 184.526 26.6613C184.581 26.5553 184.667 26.4682 184.771 26.411L185.027 26.262L184.403 25.18L184.147 25.329C184.05 25.3923 183.936 25.4259 183.82 25.4259C183.704 25.4259 183.591 25.3923 183.493 25.329C183.429 25.2868 183.363 25.249 183.293 25.216C183.19 25.1641 183.102 25.0843 183.041 24.9856C182.98 24.8868 182.948 24.7731 182.948 24.657V24.357H181.699V24.657C181.699 24.773 181.667 24.8868 181.606 24.9855C181.545 25.0842 181.458 25.164 181.354 25.216C181.285 25.2477 181.218 25.2855 181.154 25.329C181.057 25.3923 180.943 25.4259 180.827 25.4259C180.711 25.4259 180.598 25.3923 180.5 25.329L180.244 25.18L179.649 26.262L179.905 26.411C180.01 26.4682 180.096 26.5553 180.151 26.6613C180.206 26.7673 180.228 26.8873 180.214 27.006C180.206 27.0811 180.206 27.1569 180.214 27.232C180.228 27.3507 180.206 27.4707 180.151 27.5767C180.096 27.6827 180.01 27.7699 179.905 27.827L179.649 27.976L180.244 29.058L180.5 28.909C180.598 28.8457 180.711 28.8121 180.827 28.8121C180.943 28.8121 181.057 28.8457 181.154 28.909C181.218 28.9513 181.285 28.989 181.354 29.022C181.458 29.0739 181.545 29.1537 181.606 29.2524C181.667 29.3512 181.7 29.465 181.699 29.581L181.701 29.881ZM182.325 28.727C182.006 28.7282 181.694 28.6345 181.428 28.4578C181.162 28.2812 180.954 28.0295 180.831 27.7347C180.709 27.4399 180.676 27.1153 180.738 26.802C180.8 26.4888 180.954 26.201 181.18 25.9752C181.405 25.7494 181.693 25.5957 182.006 25.5337C182.32 25.4717 182.644 25.5041 182.939 25.6269C183.234 25.7496 183.486 25.9572 183.662 26.2232C183.839 26.4892 183.933 26.8017 183.931 27.121C183.93 27.5465 183.76 27.954 183.459 28.2549C183.158 28.5557 182.751 28.7254 182.325 28.727ZM182.325 25.956C182.089 25.9502 181.856 26.015 181.657 26.1421C181.458 26.2692 181.301 26.4529 181.206 26.6695C181.112 26.8862 181.084 27.1262 181.127 27.3587C181.169 27.5912 181.28 27.8058 181.445 27.975C181.61 28.1442 181.822 28.2603 182.054 28.3086C182.285 28.3569 182.525 28.3351 182.744 28.246C182.963 28.1569 183.151 28.0046 183.283 27.8085C183.415 27.6124 183.485 27.3814 183.485 27.145C183.485 26.8346 183.364 26.5365 183.147 26.3144C182.931 26.0922 182.636 25.9636 182.325 25.956Z"
          fill="white"/>
    <path d="M109.064 15.4458L108.892 15.6178C108.856 15.6178 108.827 15.6828 108.792 15.7178C108.574 15.4943 108.313 15.317 108.025 15.1968C107.737 15.0765 107.428 15.0156 107.115 15.0178C106.803 15.0144 106.493 15.0748 106.205 15.1951C105.916 15.3155 105.656 15.4933 105.438 15.7178L105.338 15.6178L105.164 15.4458L105.384 15.2558C105.54 15.1257 105.712 15.0159 105.895 14.9288C106.107 14.8217 106.334 14.7456 106.567 14.7028C106.682 14.7103 106.798 14.6939 106.906 14.6548H107.429C107.633 14.6815 107.832 14.7315 108.024 14.8038C108.17 14.8582 108.312 14.9252 108.446 15.0038C108.588 15.0847 108.722 15.1784 108.846 15.2838L109.03 15.4508L109.064 15.4458Z"
          fill="white"/>
    <path d="M105.979 16.2666C105.89 16.1666 105.801 16.0826 105.705 15.9926C105.889 15.8081 106.107 15.6618 106.347 15.5619C106.588 15.4621 106.845 15.4106 107.105 15.4106C107.366 15.4106 107.623 15.4621 107.863 15.5619C108.104 15.6618 108.322 15.8081 108.505 15.9926L108.231 16.2666C107.932 15.9677 107.527 15.7998 107.104 15.7998C106.682 15.7998 106.276 15.9677 105.977 16.2666H105.979Z"
          fill="white"/>
    <path d="M107.96 16.541L107.686 16.815C107.61 16.7354 107.517 16.673 107.414 16.632C107.312 16.591 107.202 16.5722 107.091 16.577C106.981 16.5735 106.871 16.5929 106.769 16.6338C106.667 16.6748 106.574 16.7365 106.496 16.815L106.222 16.541C106.334 16.422 106.468 16.3272 106.617 16.2624C106.767 16.1975 106.928 16.1641 107.091 16.1641C107.254 16.1641 107.415 16.1975 107.564 16.2624C107.714 16.3272 107.848 16.422 107.959 16.541H107.96Z"
          fill="white"/>
    <path d="M107.352 17.0889C107.352 17.1537 107.327 17.2157 107.281 17.2615C107.235 17.3072 107.173 17.3329 107.108 17.3329C107.073 17.3385 107.036 17.3363 107.001 17.3264C106.967 17.3166 106.935 17.2993 106.907 17.2759C106.88 17.2524 106.858 17.2233 106.843 17.1905C106.828 17.1577 106.82 17.122 106.82 17.0859C106.82 17.0498 106.828 17.0142 106.843 16.9814C106.858 16.9486 106.88 16.9195 106.907 16.896C106.935 16.8725 106.967 16.8553 107.001 16.8454C107.036 16.8356 107.073 16.8334 107.108 16.8389C107.141 16.8389 107.173 16.8454 107.203 16.8581C107.233 16.8707 107.26 16.8892 107.283 16.9125C107.306 16.9358 107.324 16.9634 107.335 16.9937C107.347 17.024 107.353 17.0564 107.352 17.0889Z"
          fill="white"/>
    <path d="M92.0803 15.97C92.0803 15.8276 92.1226 15.6884 92.2017 15.57C92.2808 15.4516 92.3932 15.3593 92.5248 15.3048C92.6564 15.2503 92.8011 15.2361 92.9408 15.2638C93.0805 15.2916 93.2088 15.3602 93.3094 15.4609C93.4101 15.5616 93.4787 15.6899 93.5065 15.8295C93.5343 15.9692 93.52 16.114 93.4655 16.2455C93.411 16.3771 93.3187 16.4895 93.2003 16.5687C93.0819 16.6478 92.9427 16.69 92.8003 16.69C92.6094 16.69 92.4262 16.6141 92.2912 16.4791C92.1562 16.3441 92.0803 16.161 92.0803 15.97Z"
          fill="white"/>
    <path d="M94.3403 15.97C94.3403 15.8276 94.3826 15.6884 94.4617 15.57C94.5408 15.4516 94.6532 15.3593 94.7848 15.3048C94.9164 15.2503 95.0611 15.2361 95.2008 15.2638C95.3405 15.2916 95.4688 15.3602 95.5695 15.4609C95.6702 15.5616 95.7387 15.6899 95.7665 15.8295C95.7943 15.9692 95.78 16.114 95.7255 16.2455C95.671 16.3771 95.5787 16.4895 95.4603 16.5687C95.3419 16.6478 95.2027 16.69 95.0603 16.69C94.8694 16.69 94.6862 16.6141 94.5512 16.4791C94.4162 16.3441 94.3403 16.161 94.3403 15.97Z"
          fill="white"/>
    <path d="M96.6003 15.97C96.6016 15.8049 96.6599 15.6453 96.7656 15.5184C96.8712 15.3916 97.0175 15.3052 97.1796 15.2741C97.3417 15.2429 97.5097 15.2689 97.6548 15.3476C97.7999 15.4263 97.9132 15.5529 97.9755 15.7058C98.0378 15.8587 98.0452 16.0284 97.9965 16.1862C97.9477 16.3439 97.8458 16.4798 97.708 16.5709C97.5703 16.6619 97.4053 16.7024 97.2411 16.6855C97.0769 16.6685 96.9236 16.5952 96.8073 16.478C96.674 16.3426 96.5996 16.16 96.6003 15.97Z"
          fill="white"/>
    <path d="M98.8604 15.97C98.8616 15.8049 98.9199 15.6453 99.0256 15.5184C99.1312 15.3916 99.2775 15.3052 99.4396 15.2741C99.6018 15.2429 99.7697 15.2689 99.9148 15.3476C100.06 15.4263 100.173 15.5529 100.236 15.7058C100.298 15.8587 100.305 16.0284 100.256 16.1862C100.208 16.3439 100.106 16.4798 99.9681 16.5709C99.8303 16.6619 99.6653 16.7024 99.5011 16.6855C99.3369 16.6685 99.1836 16.5952 99.0674 16.478C98.934 16.3426 98.8596 16.16 98.8604 15.97Z"
          fill="white"/>
    <path d="M101.114 15.97C101.114 15.8276 101.156 15.6884 101.236 15.57C101.315 15.4516 101.427 15.3593 101.559 15.3048C101.69 15.2503 101.835 15.2361 101.975 15.2638C102.114 15.2916 102.243 15.3602 102.343 15.4609C102.444 15.5616 102.513 15.6899 102.54 15.8295C102.568 15.9692 102.554 16.114 102.499 16.2455C102.445 16.3771 102.353 16.4895 102.234 16.5687C102.116 16.6478 101.977 16.69 101.834 16.69C101.643 16.69 101.46 16.6141 101.325 16.4791C101.19 16.3441 101.114 16.161 101.114 15.97Z"
          fill="white"/>
    <path d="M185.097 17.534H179.257V14.834H185.097V17.534ZM179.554 17.234H184.8V15.131H179.566L179.554 17.234Z"
          fill="white"/>
    <path d="M183.51 15.292H179.745V17.076H183.51V15.292Z" fill="white"/>
    <path d="M185.614 15.4639H185.097V16.9089H185.614V15.4639Z" fill="white"/>
    <path d="M101.465 213.56H100.644V217.337H99.1103V215.41H96.3863V217.337H94.8553V213.56H94.0283L97.7513 209.718L101.465 213.56Z"
          fill="#EBEBEB"/>
    <path d="M184.223 209.718H175.254V210.997H184.223V209.718Z" fill="#EBEBEB"/>
    <path d="M184.223 212.888H175.254V214.167H184.223V212.888Z" fill="#EBEBEB"/>
    <path d="M184.223 216.058H175.254V217.337H184.223V216.058Z" fill="#EBEBEB"/>
    <path d="M101.294 56.0549C100.756 56.3909 100.168 56.6381 99.5513 56.7869C98.0732 57.1497 96.5127 56.9418 95.1811 56.2048C93.8494 55.4678 92.8446 54.2559 92.3671 52.8107C91.8896 51.3656 91.9745 49.7936 92.6049 48.4083C93.2352 47.023 94.3647 45.9263 95.7679 45.337C97.1712 44.7477 98.745 44.7091 100.175 45.2289C101.606 45.7488 102.788 46.7888 103.485 48.1415C104.183 49.4943 104.345 51.0602 103.938 52.527C103.532 53.9938 102.588 55.2535 101.294 56.0549Z"
          fill="#DBDBDB"/>
    <path d="M99.9543 50.233C99.9543 50.5965 99.8465 50.9519 99.6446 51.2542C99.4426 51.5564 99.1555 51.792 98.8197 51.9311C98.4838 52.0702 98.1143 52.1066 97.7577 52.0357C97.4012 51.9648 97.0737 51.7897 96.8167 51.5327C96.5596 51.2756 96.3846 50.9481 96.3136 50.5916C96.2427 50.2351 96.2791 49.8655 96.4182 49.5296C96.5573 49.1938 96.7929 48.9067 97.0952 48.7048C97.3974 48.5028 97.7528 48.395 98.1163 48.395C98.6038 48.395 99.0713 48.5887 99.416 48.9334C99.7607 49.2781 99.9543 49.7455 99.9543 50.233Z"
          fill="white"/>
    <path d="M101.293 55.2999V56.0548C100.755 56.3908 100.167 56.638 99.5503 56.7868C98.7734 56.9769 97.9664 57.01 97.1765 56.8844C96.3866 56.7587 95.6298 56.4766 94.9503 56.0548V55.2999C94.9316 54.8716 94.9999 54.4439 95.151 54.0427C95.302 53.6415 95.5328 53.275 95.8292 52.9654C96.1257 52.6557 96.4818 52.4093 96.8761 52.241C97.2703 52.0726 97.6946 51.9858 98.1233 51.9858C98.552 51.9858 98.9762 52.0726 99.3705 52.241C99.7648 52.4093 100.121 52.6557 100.417 52.9654C100.714 53.275 100.945 53.6415 101.096 54.0427C101.247 54.4439 101.315 54.8716 101.296 55.2999H101.293Z"
          fill="white"/>
    <path d="M150.091 45.231H111.724V48.395H150.091V45.231Z" fill="#EBEBEB"/>
    <path d="M145.214 50.5059H111.724V52.5989H145.214V50.5059Z" fill="#EBEBEB"/>
    <path d="M167.1 54.5449H111.724V56.6379H167.1V54.5449Z" fill="#EBEBEB"/>
    <path d="M85.0274 137.701H193.192V61.9547L85.0274 61.9547L85.0274 137.701Z" fill="#EBEBEB"/>
    <path d="M97.6713 83.4908C97.6713 85.2635 98.1969 86.9965 99.1818 88.4704C100.167 89.9444 101.566 91.0932 103.204 91.7716C104.842 92.4499 106.644 92.6275 108.383 92.2816C110.122 91.9358 111.719 91.0821 112.972 89.8286C114.226 88.5751 115.079 86.9781 115.425 85.2394C115.771 83.5008 115.593 81.6986 114.915 80.0608C114.237 78.4231 113.088 77.0232 111.614 76.0384C110.14 75.0535 108.407 74.5278 106.634 74.5278C104.257 74.5278 101.977 75.4721 100.296 77.153C98.6156 78.8339 97.6713 81.1137 97.6713 83.4908Z"
          fill="#DBDBDB"/>
    <path d="M133.058 121.226H193.21L163.134 80.4629L133.058 121.226Z" fill="#C7C7C7"/>
    <path d="M109.482 121.423H159.143L134.312 94.8735L109.482 121.423Z" fill="#DBDBDB"/>
    <path d="M193.197 121.387H85.0323V137.707H193.197V121.387Z" fill="#DBDBDB"/>
    <path d="M101.293 177.668C100.209 178.336 98.9419 178.644 97.6723 178.548C96.4028 178.451 95.1962 177.956 94.2256 177.132C93.255 176.308 92.57 175.197 92.2689 173.96C91.9678 172.723 92.0659 171.423 92.5492 170.245C93.0325 169.067 93.8762 168.072 94.9594 167.403C96.0427 166.734 97.3099 166.425 98.5796 166.52C99.8492 166.615 101.056 167.11 102.028 167.933C102.999 168.756 103.685 169.865 103.987 171.102C104.286 172.341 104.186 173.642 103.702 174.821C103.218 175.999 102.376 176.996 101.293 177.668Z"
          fill="#DBDBDB"/>
    <path d="M99.9543 171.822C99.9543 172.185 99.8465 172.541 99.6446 172.843C99.4426 173.145 99.1555 173.381 98.8197 173.52C98.4838 173.659 98.1143 173.695 97.7577 173.625C97.4012 173.554 97.0737 173.379 96.8167 173.122C96.5596 172.865 96.3846 172.537 96.3136 172.18C96.2427 171.824 96.2791 171.454 96.4182 171.119C96.5573 170.783 96.7929 170.496 97.0952 170.294C97.3974 170.092 97.7528 169.984 98.1163 169.984C98.6038 169.984 99.0713 170.178 99.416 170.522C99.7607 170.867 99.9543 171.334 99.9543 171.822Z"
          fill="white"/>
    <path d="M101.293 176.888V177.667C100.754 177.998 100.166 178.243 99.5503 178.393C98.7735 178.584 97.9663 178.618 97.1762 178.492C96.3861 178.367 95.6293 178.084 94.9503 177.661V176.906C94.9316 176.478 94.9999 176.05 95.151 175.649C95.302 175.247 95.5328 174.881 95.8292 174.571C96.1257 174.262 96.4818 174.015 96.8761 173.847C97.2703 173.679 97.6946 173.592 98.1233 173.592C98.552 173.592 98.9762 173.679 99.3705 173.847C99.7648 174.015 100.121 174.262 100.417 174.571C100.714 174.881 100.945 175.247 101.096 175.649C101.247 176.05 101.315 176.478 101.296 176.906L101.293 176.888Z"
          fill="white"/>
    <path d="M161.069 166.819H111.724V169.983H161.069V166.819Z" fill="#EBEBEB"/>
    <path d="M174.713 172.095H111.724V174.188H174.713V172.095Z" fill="#EBEBEB"/>
    <path d="M133.182 176.133H111.724V178.226H133.182V176.133Z" fill="#EBEBEB"/>
    <path d="M193.197 183.55H85.0323V202.052H193.197V183.55Z" fill="#EBEBEB"/>
    <path d="M115.067 202.051H98.2003C98.825 200.315 99.9702 198.814 101.48 197.753C102.989 196.692 104.789 196.123 106.634 196.123C108.479 196.123 110.279 196.692 111.788 197.753C113.297 198.814 114.443 200.315 115.067 202.051Z"
          fill="#DBDBDB"/>
    <path d="M95.7734 149.31C97.7505 149.31 99.3534 147.707 99.3534 145.73C99.3534 143.753 97.7505 142.15 95.7734 142.15C93.7962 142.15 92.1934 143.753 92.1934 145.73C92.1934 147.707 93.7962 149.31 95.7734 149.31Z"
          fill="#EBEBEB"/>
    <path fill-rule="evenodd" clip-rule="evenodd"
          d="M95.2863 147.157C95.1863 147.098 95.1083 147.008 94.9863 147.02C94.8643 147.032 94.9503 146.99 94.9503 146.96V145.533C94.9473 145.516 94.9498 145.499 94.9574 145.484C94.965 145.469 94.9772 145.457 94.9923 145.45C95.3553 145.266 95.5153 144.903 95.7413 144.594C95.855 144.44 95.9367 144.265 95.9817 144.079C96.0267 143.894 96.0341 143.701 96.0033 143.512C96.0033 143.405 96.0393 143.357 96.1343 143.334C96.1835 143.318 96.2366 143.318 96.2859 143.334C96.3351 143.35 96.378 143.381 96.4083 143.423C96.5128 143.618 96.5832 143.829 96.6163 144.047C96.6123 144.227 96.5905 144.406 96.5513 144.582C96.5392 144.715 96.5155 144.846 96.4803 144.975H97.7713C97.9433 144.975 98.0273 145.023 98.0513 145.136C98.0648 145.206 98.0547 145.278 98.0224 145.342C97.9902 145.405 97.9377 145.456 97.8733 145.487C97.8433 145.487 97.7903 145.487 97.7843 145.535C97.7783 145.583 97.8383 145.577 97.8673 145.6C98.0103 145.7 97.9863 145.9 97.8133 146.022C97.7773 146.052 97.6943 146.022 97.6943 146.099C97.6943 146.176 97.7653 146.147 97.8013 146.176C97.8272 146.21 97.8448 146.249 97.8528 146.291C97.8607 146.333 97.8589 146.376 97.8474 146.417C97.8358 146.458 97.8149 146.495 97.7862 146.527C97.7576 146.558 97.722 146.583 97.6823 146.598C97.6577 146.605 97.6339 146.615 97.6113 146.628C97.6113 146.628 97.5753 146.628 97.6113 146.682C97.6515 146.701 97.6853 146.732 97.709 146.77C97.7326 146.808 97.7452 146.851 97.7452 146.896C97.7452 146.941 97.7326 146.984 97.709 147.022C97.6853 147.06 97.6515 147.09 97.6113 147.11L97.5633 147.146C97.4991 147.185 97.424 147.202 97.3493 147.194H95.4493C95.3923 147.202 95.3344 147.189 95.2863 147.157Z"
          fill="white"/>
    <path fill-rule="evenodd" clip-rule="evenodd"
          d="M93.4903 146.319V145.409C93.4903 145.344 93.4903 145.309 93.5733 145.309H94.6793C94.7503 145.309 94.7623 145.309 94.7623 145.398V147.23C94.7623 147.307 94.7623 147.33 94.6623 147.33H93.5863C93.4973 147.33 93.4863 147.3 93.4863 147.217C93.4963 146.92 93.4903 146.622 93.4903 146.319Z"
          fill="white"/>
    <path d="M99.8183 146.58C99.6254 145.778 99.7164 144.934 100.076 144.191C100.435 143.449 101.041 142.854 101.789 142.508C102.538 142.161 103.383 142.085 104.182 142.292C104.98 142.498 105.683 142.976 106.169 143.642C106.655 144.308 106.896 145.122 106.85 145.946C106.804 146.769 106.473 147.551 105.916 148.159C105.358 148.767 104.606 149.162 103.79 149.278C102.973 149.394 102.141 149.224 101.436 148.796C101.034 148.552 100.683 148.23 100.406 147.85C100.128 147.469 99.9284 147.038 99.8183 146.58Z"
          fill="#DD326E"/>
    <path d="M105.123 146.186C104.688 146.924 104.056 147.525 103.297 147.923C102.537 147.526 101.902 146.924 101.465 146.186C101.35 146.015 101.272 145.821 101.238 145.618C101.203 145.415 101.212 145.207 101.263 145.007C101.315 144.808 101.409 144.621 101.538 144.461C101.667 144.3 101.829 144.168 102.012 144.075C103.035 143.766 103.297 145.544 103.297 145.544C103.297 145.544 103.559 143.76 104.576 144.075C104.761 144.167 104.924 144.298 105.054 144.459C105.184 144.619 105.278 144.806 105.33 145.006C105.381 145.206 105.39 145.415 105.354 145.618C105.319 145.822 105.24 146.015 105.123 146.186Z"
          fill="white"/>
    <path d="M163.139 145.266H112.319V147.336H163.139V145.266Z" fill="#EBEBEB"/>
    <path d="M85.0273 157.607L98.5513 157.5L112.069 157.458L139.112 157.387L166.155 157.458L179.673 157.5L193.197 157.607L179.673 157.714L166.155 157.756L139.112 157.833L112.069 157.756L98.5513 157.714L85.0273 157.607Z"
          fill="#EBEBEB"/>
    <path d="M63.9704 107.293L27.4794 117.023L37.2094 153.514L73.7004 143.784L63.9704 107.293Z" fill="#1988BC"/>
    <path d="M48.2243 135.169L43.3353 136.469C42.8243 134.56 42.3423 132.758 41.8353 130.855L46.6353 129.576C46.5353 129.142 46.4803 128.803 46.3973 128.47C46.0343 126.983 45.5823 125.496 45.3263 124.015C44.9777 122.52 45.179 120.949 45.8933 119.59C46.6076 118.231 47.7872 117.175 49.2163 116.615C51.2115 115.915 53.2523 115.353 55.3243 114.932C55.7943 116.675 56.2163 118.263 56.6923 120.041C55.9493 120.241 55.2053 120.422 54.4743 120.636C53.8102 120.793 53.1629 121.014 52.5413 121.296C52.1306 121.473 51.7962 121.79 51.598 122.191C51.3998 122.592 51.3506 123.051 51.4593 123.485C51.7803 124.936 52.2083 126.364 52.6483 127.922L58.2273 126.429C58.4773 128.329 58.7333 130.093 58.9273 131.859C58.9273 132.031 58.5763 132.353 58.3323 132.454C56.9943 132.854 55.6443 133.191 54.1693 133.578C55.4543 138.413 56.7203 143.165 58.0113 147.994L52.0643 149.576C50.7943 144.786 49.5173 140.034 48.2243 135.169Z"
          fill="white"/>
    <path d="M244.179 163.425L206.501 159.676L202.753 197.353L240.43 201.102L244.179 163.425Z" fill="#DD326E"/>
    <path d="M238.117 174.099C238.474 170.328 236.333 167.652 232.617 167.248C227.463 166.681 222.288 166.168 217.094 165.708C216.286 165.589 215.462 165.641 214.676 165.86C213.889 166.079 213.157 166.461 212.526 166.98C211.896 167.5 211.381 168.145 211.016 168.876C210.65 169.606 210.442 170.405 210.403 171.221C210.112 173.802 209.886 176.389 209.63 178.953C209.374 181.517 209.113 184.008 208.881 186.536C208.53 190.396 210.665 193.078 214.454 193.512C219.569 194.071 224.688 194.578 229.81 195.034C230.633 195.158 231.472 195.107 232.273 194.885C233.074 194.662 233.819 194.273 234.46 193.742C235.1 193.212 235.621 192.552 235.988 191.806C236.355 191.06 236.56 190.244 236.59 189.414C237.126 184.31 237.635 179.205 238.117 174.099ZM234.117 189.229C233.855 191.608 232.44 192.797 230.055 192.583C224.933 192.107 219.814 191.599 214.699 191.06C214.194 191.064 213.695 190.956 213.237 190.742C212.78 190.529 212.376 190.215 212.055 189.825C211.734 189.435 211.505 188.978 211.385 188.488C211.264 187.997 211.255 187.486 211.357 186.992C211.845 181.837 212.357 176.673 212.891 171.499C212.888 170.993 212.997 170.493 213.211 170.035C213.425 169.577 213.737 169.172 214.127 168.849C214.516 168.526 214.972 168.294 215.462 168.169C215.952 168.044 216.463 168.03 216.959 168.127C222.082 168.599 227.201 169.104 232.315 169.644C232.822 169.642 233.323 169.754 233.78 169.971C234.238 170.188 234.642 170.505 234.962 170.898C235.281 171.291 235.509 171.75 235.629 172.243C235.748 172.735 235.756 173.248 235.651 173.744C235.425 176.325 235.151 178.906 234.896 181.476C234.641 184.046 234.402 186.638 234.117 189.219V189.229Z"
          fill="white"/>
    <path d="M224.231 173.1C222.559 172.928 220.879 173.341 219.477 174.268C218.075 175.195 217.037 176.579 216.54 178.185C216.043 179.791 216.117 181.519 216.751 183.076C217.384 184.634 218.537 185.923 220.014 186.726C221.491 187.529 223.201 187.796 224.852 187.481C226.503 187.166 227.994 186.288 229.072 184.998C230.149 183.708 230.747 182.084 230.762 180.403C230.778 178.722 230.211 177.088 229.157 175.778C228.554 175.028 227.808 174.405 226.963 173.945C226.117 173.486 225.189 173.198 224.231 173.1ZM222.94 185.155C221.693 184.994 220.554 184.361 219.759 183.386C218.963 182.412 218.572 181.169 218.664 179.915C218.805 178.643 219.442 177.479 220.435 176.674C221.429 175.869 222.7 175.489 223.973 175.615C225.246 175.741 226.417 176.363 227.234 177.348C228.05 178.332 228.446 179.599 228.334 180.873C228.176 182.151 227.523 183.316 226.514 184.118C225.505 184.919 224.222 185.291 222.94 185.156V185.155Z"
          fill="white"/>
    <path d="M233.646 173.855C233.616 174.08 233.539 174.296 233.422 174.491C233.305 174.686 233.15 174.854 232.965 174.987C232.781 175.119 232.571 175.213 232.349 175.262C232.128 175.31 231.898 175.313 231.675 175.271C231.452 175.228 231.24 175.14 231.052 175.012C230.864 174.885 230.704 174.72 230.582 174.529C230.46 174.337 230.378 174.123 230.341 173.899C230.305 173.675 230.314 173.445 230.369 173.225C230.406 173.005 230.486 172.795 230.605 172.607C230.724 172.419 230.88 172.257 231.063 172.13C231.245 172.003 231.452 171.913 231.669 171.867C231.887 171.821 232.112 171.819 232.331 171.861C232.549 171.903 232.757 171.988 232.942 172.112C233.127 172.236 233.286 172.395 233.409 172.581C233.531 172.767 233.615 172.975 233.656 173.194C233.697 173.413 233.694 173.637 233.646 173.855Z"
          fill="white"/>
    <path d="M269.819 77.8639L243.288 68.4219L233.846 94.9528L260.377 104.395L269.819 77.8639Z" fill="#1988BC"/>
    <path d="M239.401 89.3885C241.484 90.2378 243.796 90.3368 245.943 89.6685C243.766 88.0625 243.058 86.9685 243.195 85.4575L244.86 85.9575C244.057 85.3681 243.458 84.5419 243.147 83.5948C242.837 82.6478 242.831 81.6273 243.129 80.6765L244.658 81.7175C243.683 78.8685 243.938 77.0175 245.558 75.7705C246.178 77.427 247.131 78.9385 248.359 80.2115C249.586 81.4844 251.062 82.4916 252.695 83.1705C252.778 82.8905 252.832 82.6765 252.895 82.4705C253.108 81.6213 253.578 80.8588 254.241 80.2879C254.905 79.717 255.729 79.3657 256.6 79.2825C257.47 79.1515 258.358 79.2913 259.146 79.683C259.933 80.0746 260.58 80.699 261 81.4715C261.074 81.6345 261.195 81.7715 261.348 81.8647C261.501 81.958 261.678 82.0032 261.856 81.9945H264.164C263.564 82.7265 262.745 83.2475 261.827 83.4815C261.83 83.5271 261.83 83.5729 261.827 83.6185L264.034 83.8185L264.088 83.9315C263.38 84.2705 262.678 84.6395 261.953 84.9365C261.778 84.9928 261.617 85.0893 261.485 85.2183C261.353 85.3472 261.253 85.5051 261.192 85.6795C260.157 88.6536 258.041 91.1298 255.265 92.617C252.489 94.1042 249.255 94.4938 246.205 93.7085C243.685 93.0919 241.413 91.7204 239.693 89.7775C239.604 89.6421 239.506 89.5122 239.401 89.3885Z"
          fill="white"/>
    <path d="M230.41 40.4479L207.193 48.189L214.934 71.4054L238.151 63.6643L230.41 40.4479Z" fill="#DD326E"/>
    <path d="M216.678 63.2587C216.677 63.0588 216.635 62.8612 216.554 62.6784C216.473 62.4955 216.355 62.3312 216.208 62.1957C215.271 61.2119 214.567 60.0296 214.149 58.7365C213.731 57.4435 213.609 56.0729 213.793 54.7264C213.977 53.3799 214.461 52.0921 215.211 50.9584C215.96 49.8248 216.955 48.8745 218.122 48.1781C219.289 47.4816 220.598 47.0568 221.952 46.9352C223.305 46.8136 224.669 46.9984 225.941 47.4758C227.214 47.9531 228.362 48.7109 229.302 49.6928C230.241 50.6747 230.948 51.8555 231.368 53.1477C231.991 55.3157 231.789 57.6376 230.8 59.6652C229.812 61.6928 228.107 63.2822 226.015 64.1267C224.576 64.682 223.024 64.886 221.489 64.7217C221.195 64.7037 220.902 64.7762 220.65 64.9297C219.407 65.7447 218.2 66.5417 216.88 67.4217C216.803 65.9637 216.72 64.6137 216.678 63.2587ZM222.06 48.3897C220.554 48.4689 219.112 49.0207 217.937 49.9668C216.763 50.9129 215.916 52.2051 215.518 53.6597C215.034 55.0424 214.987 56.5407 215.382 57.9514C215.778 59.362 216.598 60.6169 217.731 61.5457C217.946 61.7617 218.082 62.0433 218.118 62.3457C218.231 63.0887 218.243 63.8457 218.291 64.6767V64.7007C219.064 64.2007 219.712 63.7557 220.391 63.3567C220.633 63.2255 220.909 63.1715 221.182 63.2017C222.438 63.4168 223.726 63.3312 224.941 62.9517C225.992 62.6172 226.957 62.0559 227.767 61.3074C228.577 60.5588 229.212 59.6414 229.628 58.6201C230.044 57.5987 230.23 56.4984 230.174 55.397C230.118 54.2957 229.82 53.2202 229.301 52.2467C228.648 50.9293 227.599 49.8491 226.301 49.157C225.003 48.465 223.522 48.1956 222.063 48.3867L222.06 48.3897ZM218.997 57.0897C218.392 56.6668 217.937 56.0628 217.697 55.3647C217.559 54.796 217.586 54.1995 217.775 53.6457C218.096 52.6647 218.935 52.5577 219.63 53.2887C219.904 53.5737 219.981 53.6757 220.266 54.0147C220.466 54.1886 220.597 54.4281 220.636 54.6901C220.675 54.952 220.619 55.2193 220.478 55.4437C220.258 55.8187 220.371 56.0387 220.686 56.2937C221.648 57.0485 222.806 57.5108 224.022 57.6257C224.099 57.6454 224.18 57.6496 224.258 57.6381C224.337 57.6266 224.412 57.5996 224.48 57.5587C224.549 57.5178 224.608 57.4637 224.655 57.3997C224.702 57.3356 224.736 57.2629 224.754 57.1857C225.206 56.0377 225.224 56.0437 226.454 56.1857L226.877 56.2387C227.075 56.2341 227.27 56.2851 227.439 56.3859C227.609 56.4867 227.747 56.6332 227.838 56.8087C227.928 56.9842 227.968 57.1817 227.951 57.3785C227.935 57.5752 227.864 57.7635 227.745 57.9217C227.538 58.3311 227.223 58.6763 226.835 58.9203C226.446 59.1643 225.998 59.2979 225.539 59.3067C225.362 59.3167 225.186 59.3217 225.01 59.3217C222.803 59.3222 220.668 58.5282 218.997 57.0847V57.0897Z"
          fill="white"/>
    <path d="M132.226 134.757C132.226 134.757 128.026 148.079 122.71 165.422C116.81 184.697 109.542 208.927 105.177 225.336H144.906C145.572 222.695 146.298 219.836 147.065 216.807L150.419 203.723C153.595 191.358 157.092 177.84 160.143 166.082C164.717 148.46 168.285 134.775 168.285 134.775L132.226 134.757Z"
          fill="#455A64"/>
    <path d="M160.583 144.427C159.727 147.478 158.65 150.475 157.704 153.491C156.758 156.507 155.783 159.67 154.831 162.763C152.944 168.889 151.073 175.016 149.217 181.146C145.494 193.401 141.783 205.665 138.083 217.937C137.34 220.405 136.56 222.867 135.793 225.337H136.982C138.406 220.611 139.829 215.881 141.252 211.147C144.986 198.693 148.707 186.233 152.415 173.768C154.271 167.507 156.116 161.24 157.952 154.968C158.874 151.798 159.736 148.622 160.658 145.452C161.13 143.868 160.928 143.172 160.583 144.427Z"
          fill="#263238"/>
    <path d="M136.323 134.757C138.823 154.128 143.597 190.457 147.076 216.831C155.218 184.899 168.296 134.757 168.296 134.757H136.323Z"
          fill="#263238"/>
    <path d="M150.424 203.707C150.624 210.999 150.817 218.629 150.971 225.338H187.476C186.733 208.757 185.454 185.354 184.383 166.489C183.372 148.57 182.539 134.76 182.539 134.76H133.391C133.391 134.76 134.224 152.007 138.149 165.686C138.464 166.816 138.809 167.928 139.184 168.993C142.806 170.457 146.287 172.249 149.584 174.346C149.584 174.346 150.02 188.218 150.424 203.707Z"
          fill="#455A64"/>
    <path d="M181.713 225.336H182.308C182.066 220.943 181.844 216.552 181.642 212.163C180.583 188.433 179.751 164.685 178.966 140.949C178.968 140.929 178.965 140.909 178.959 140.89C178.952 140.871 178.942 140.853 178.928 140.838C178.915 140.823 178.898 140.811 178.879 140.803C178.861 140.795 178.841 140.791 178.821 140.791C178.801 140.791 178.781 140.795 178.762 140.803C178.744 140.811 178.727 140.823 178.713 140.838C178.7 140.853 178.689 140.871 178.683 140.89C178.676 140.909 178.674 140.929 178.675 140.949C179.075 154.372 179.424 167.801 179.864 181.225C180.376 195.902 180.992 210.606 181.713 225.336Z"
          fill="#263238"/>
    <path d="M137.435 167.961C141.668 169.73 145.74 171.863 149.603 174.337C149.63 174.357 149.649 174.387 149.657 174.42C149.664 174.453 149.66 174.487 149.644 174.517C149.628 174.547 149.602 174.571 149.571 174.584C149.54 174.596 149.505 174.597 149.472 174.587C145.372 172.587 141.172 170.668 137.185 168.455C137.131 168.416 137.092 168.359 137.076 168.294C137.06 168.229 137.068 168.16 137.098 168.1C137.128 168.041 137.179 167.994 137.241 167.968C137.303 167.942 137.372 167.94 137.435 167.961Z"
          fill="#263238"/>
    <path d="M134.89 148.87C135.229 150.696 135.669 152.504 136.079 154.318C136.448 156.018 136.715 157.756 137.167 159.433C137.531 161.063 138.357 162.554 139.546 163.727C140.212 164.322 140.946 164.916 141.663 165.464C142.044 165.764 142.463 166.059 142.852 166.374C142.798 166.136 142.752 165.886 142.715 165.642C142.59 164.942 142.477 164.256 142.358 163.566C142.102 162.026 141.852 160.485 141.621 158.945C141.157 155.918 140.729 152.861 140.098 149.863C140.097 149.84 140.104 149.817 140.118 149.799C140.132 149.78 140.151 149.767 140.174 149.761C140.196 149.756 140.22 149.758 140.24 149.768C140.261 149.778 140.278 149.794 140.288 149.815C141.043 152.789 141.876 155.727 142.53 158.736C142.851 160.205 144.005 167.461 144.053 167.972C144.101 168.483 144.153 169.031 144.172 169.566C144.241 170.107 144.241 170.655 144.172 171.196C144.142 171.327 143.982 171.303 143.922 171.196C143.703 170.692 143.548 170.162 143.458 169.62C143.327 169.103 143.208 168.579 143.119 168.05C143.083 167.86 143.059 167.669 143.03 167.455C142.316 167.021 141.65 166.45 140.984 165.962C140.318 165.474 139.533 164.933 138.849 164.362C137.595 163.297 136.689 161.88 136.249 160.294C135.812 158.584 135.527 156.838 135.399 155.078C135.167 153.02 134.999 150.945 134.709 148.893C134.682 148.799 134.866 148.745 134.89 148.87Z"
          fill="#263238"/>
    <path d="M141.396 86.8148C138.958 106.251 134.696 138.849 127.806 141.483C126.617 141.941 121.537 142.946 118.07 139.045C112.224 132.467 102.113 110.272 99.2763 103.129C98.0213 99.9647 118.659 89.6398 120.425 92.8218C122.899 97.2768 125.498 103.985 125.986 103.759C126.813 103.384 128.216 95.1118 133.718 83.4898C140.587 69.0498 142.306 79.5888 141.396 86.8148Z"
          fill="#AD6359"/>
    <path d="M93.2932 95.4561C95.3272 99.8211 102.975 107.119 105.493 108.172C108.011 109.225 120.855 96.6401 120.528 93.8511C120.201 91.0621 112.202 76.9071 107.818 74.7241C103.434 72.5411 91.1942 90.9361 93.2932 95.4561Z"
          fill="#D8958C"/>
    <path d="M119.599 91.2039C119.389 87.3189 119.745 83.4239 120.658 79.6419C121.907 75.1759 124.268 68.6809 121.889 67.9199C117.012 66.3559 111.136 82.5509 111.136 82.5509C111.136 82.5509 109.685 90.1099 114.383 92.0669C115.248 92.4178 116.193 92.5229 117.113 92.3706C118.033 92.2183 118.894 91.8145 119.599 91.2039Z"
          fill="#D8958C"/>
    <path d="M106.527 96.3659L99.2893 95.0929L102.982 74.1279L112.141 75.7399L106.527 96.3659Z" fill="#DD326E"/>
    <path d="M112.141 75.7409L110 83.6089L106.527 96.3719L99.2832 95.0929L102.983 74.1279L112.141 75.7409Z"
          fill="#DD326E"/>
    <path opacity="0.1" d="M112.141 75.741L110 83.609L101.573 82.119L102.983 74.126L112.141 75.741Z" fill="black"/>
    <path d="M113.965 70.3409L102.567 68.3311L101.041 76.9875L112.439 78.9973L113.965 70.3409Z" fill="#DD326E"/>
    <path d="M122.168 68.5089L113.158 67.8309L115.626 53.8188L124.326 56.2689L122.168 68.5089Z" fill="#DD326E"/>
    <path d="M111.558 50.245L107.918 70.924L92.7463 70.085L55.9623 76.704L64.7173 27.043L97.0173 45.849L111.558 50.245Z"
          fill="url(#paint1_linear_1_7239)"/>
    <path d="M67.5535 53.1583C69.9833 39.3782 68.3631 27.5742 63.9347 26.7934C59.5063 26.0126 53.9467 36.5505 51.5169 50.3306C49.0871 64.1108 50.7072 75.9147 55.1356 76.6956C59.564 77.4764 65.1237 66.9384 67.5535 53.1583Z"
          fill="#DD326E"/>
    <path opacity="0.2"
          d="M65.7636 52.4C67.9208 40.1662 66.7299 29.7304 63.1038 29.091C59.4776 28.4516 54.7893 37.8507 52.6322 50.0846C50.475 62.3184 51.6659 72.7542 55.292 73.3936C58.9182 74.0329 63.6065 64.6338 65.7636 52.4Z"
          fill="black"/>
    <path d="M64.6933 52.1771C64.4023 53.8071 64.0983 55.3831 63.7003 56.8931C62.8695 57.3551 61.9247 57.5723 60.9755 57.5195C60.0263 57.4666 59.1115 57.1459 58.337 56.5945C57.5626 56.0431 56.9603 55.2836 56.5998 54.4039C56.2393 53.5242 56.1355 52.5604 56.3003 51.6241L56.7103 49.2811C56.8731 48.3476 57.2965 47.4792 57.9316 46.776C58.5667 46.0728 59.3876 45.5634 60.2997 45.3067C61.2118 45.0499 62.1779 45.0562 63.0866 45.3249C63.9953 45.5936 64.8095 46.1136 65.4353 46.8251C65.2643 48.5731 65.0133 50.3931 64.6933 52.1771Z"
          fill="#DD326E"/>
    <path d="M115.727 73.4807L98.3013 72.1727L103.077 45.0728L119.902 49.8008L115.727 73.4807Z" fill="#DD326E"/>
    <path opacity="0.2" d="M115.727 73.4807L98.3013 72.1727L103.077 45.0728L119.902 49.8008L115.727 73.4807Z"
          fill="black"/>
    <path opacity="0.2"
          d="M66.4423 30.856C67.3571 32.5296 67.9615 34.355 68.2263 36.244C68.5264 38.1244 68.6756 40.0258 68.6723 41.93C68.6723 42.882 68.6423 43.83 68.6133 44.779C68.5843 45.728 68.4883 46.679 68.3873 47.622C68.2863 48.565 68.1873 49.513 68.0423 50.453C67.8973 51.393 67.7623 52.332 67.5963 53.266C66.9431 57.0158 65.9476 60.6978 64.6223 64.266C63.9522 66.0474 63.1253 67.7658 62.1513 69.401C61.2043 71.0593 59.9171 72.4985 58.3743 73.624C59.8486 72.4321 61.063 70.9506 61.9423 69.271C62.8638 67.6258 63.6382 65.9024 64.2563 64.1209C65.5025 60.5576 66.4435 56.8947 67.0693 53.172C67.7768 49.4644 68.1745 45.7045 68.2583 41.931C68.3102 40.0449 68.2128 38.1577 67.9673 36.287C67.7764 34.4021 67.2605 32.5646 66.4423 30.856Z"
          fill="black"/>
    <path d="M48.3263 26.5439C49.3553 27.3589 50.3483 28.2269 51.3003 29.0949C52.2523 29.9629 53.2393 30.8789 54.1903 31.7589C55.1413 32.6389 56.0753 33.5789 56.9903 34.5249L58.3523 35.9399C58.7923 36.4279 59.2523 36.9029 59.6783 37.4029C59.1553 37.0029 58.6613 36.5699 58.1503 36.1539L56.6693 34.8539C55.6883 33.9919 54.7303 33.0699 53.7793 32.1899C52.8283 31.3099 51.8943 30.3699 50.9793 29.4239C50.0643 28.4779 49.1883 27.5369 48.3263 26.5439Z"
          fill="white"/>
    <path d="M55.6402 64.917C54.2072 65.292 52.7562 65.601 51.3102 65.898C49.8642 66.195 48.4102 66.493 46.9512 66.725C45.4922 66.957 44.0372 67.219 42.5682 67.425L40.3682 67.725C39.6362 67.802 38.8992 67.897 38.1622 67.957C38.8762 67.767 39.6012 67.612 40.3212 67.434L42.4922 66.976C43.9372 66.667 45.3922 66.381 46.8512 66.149C48.3102 65.917 49.7652 65.655 51.2342 65.459C52.7032 65.263 54.1652 65.048 55.6402 64.917Z"
          fill="white"/>
    <path d="M28.4022 59.7609C30.5732 59.5939 32.7442 59.4869 34.9442 59.3919C37.1442 59.2969 39.2862 59.2309 41.4562 59.1779C43.6262 59.1249 45.8042 59.0949 47.9982 59.1009H51.2572C52.3452 59.1009 53.4342 59.1009 54.5222 59.1779C53.4342 59.2669 52.3512 59.3209 51.2632 59.3919L48.0042 59.5529C45.8332 59.6529 43.6622 59.7079 41.4622 59.7669C39.2622 59.8259 37.1142 59.8439 34.9202 59.8379C32.7262 59.8319 30.5792 59.8379 28.4022 59.7609Z"
          fill="white"/>
    <path d="M36.1873 26.978C38.0433 28.167 39.8623 29.416 41.6763 30.671C43.4903 31.926 45.2863 33.205 47.0763 34.489C48.8663 35.773 50.6443 37.082 52.3933 38.42L55.0223 40.42C55.8843 41.11 56.7593 41.776 57.6153 42.478C56.6813 41.883 55.7713 41.289 54.8493 40.658L52.1253 38.785C50.3053 37.536 48.5153 36.251 46.7253 34.967C44.9353 33.683 43.1573 32.367 41.4083 31.036C39.6593 29.705 37.9003 28.388 36.1873 26.978Z"
          fill="white"/>
    <path d="M55.3493 50.7969C52.8273 50.4519 50.3123 50.0419 47.8023 49.6079C45.2923 49.1739 42.7883 48.7159 40.2853 48.2759C37.7823 47.8359 35.2853 47.3179 32.7913 46.8009L29.0503 46.0219C27.8133 45.7369 26.5643 45.4749 25.3273 45.1719C26.5883 45.3439 27.8493 45.5469 29.1043 45.7309L32.8753 46.3259C35.3853 46.7419 37.8893 47.2179 40.3923 47.6579C42.8953 48.0979 45.3923 48.6159 47.8863 49.1329C50.3803 49.6499 52.8873 50.2079 55.3493 50.7969Z"
          fill="white"/>
    <path d="M113.925 79.4398C113.645 81.9738 110.815 80.2008 110.815 80.2008C110.815 80.2008 114.276 83.7338 112.98 86.2438C111.725 88.6528 108.38 86.3868 108.139 86.2438C108.323 86.4338 111.416 89.7648 109.858 92.1498C108.3 94.5348 105.267 91.7748 105.1 91.5908C105.213 91.8228 106.688 94.9158 105.1 96.4558C102.352 99.1028 98.3743 91.2938 95.4003 90.4668C95.4003 90.4668 93.4203 95.3438 93.3303 95.4748C93.3303 95.4748 89.3933 88.1298 90.7373 84.1748C90.9227 83.5974 91.2996 83.1006 91.8056 82.7664C92.3116 82.4322 92.9165 82.2807 93.5203 82.3368C93.5203 82.3368 91.9923 80.1128 93.1573 78.1738C93.7523 77.1928 95.8693 77.2818 95.8693 77.2818C95.5491 76.7592 95.3796 76.1582 95.3796 75.5453C95.3796 74.9324 95.5491 74.3314 95.8693 73.8088C96.7793 72.5008 98.7483 72.7918 98.7483 72.7918C98.7483 72.7918 98.4573 70.5198 99.8243 69.4788C102.53 67.3968 114.508 74.0098 113.925 79.4398Z"
          fill="#D8958C"/>
    <path d="M99.0272 72.8028C99.0211 72.7999 99.0159 72.7953 99.0123 72.7895C99.0087 72.7838 99.0067 72.7771 99.0067 72.7703C99.0067 72.7635 99.0087 72.7568 99.0123 72.7511C99.0159 72.7453 99.0211 72.7407 99.0272 72.7378C103.683 73.9719 107.849 76.6038 110.963 80.2788C111.063 80.3978 110.904 80.6058 110.773 80.4928C107.249 77.3763 103.293 74.7862 99.0272 72.8028Z"
          fill="#263238"/>
    <path d="M95.7853 77.2339C95.7373 77.2339 95.7853 77.1339 95.8273 77.1509C100.938 78.5696 105.37 81.7752 108.317 86.1849C108.417 86.3459 108.347 86.5849 108.217 86.4109C106.092 83.5139 99.8243 79.0359 95.7853 77.2339Z"
          fill="#263238"/>
    <path d="M105.164 91.9597C102.232 87.6777 98.2232 84.7597 93.6802 82.3667C93.6212 82.3667 93.6802 82.2537 93.7282 82.2667C96.4102 83.0787 98.8934 84.441 101.019 86.2667C102.916 87.7195 104.397 89.6456 105.313 91.8517C105.349 91.9477 105.224 92.0247 105.164 91.9597Z"
          fill="#263238"/>
    <path d="M110.904 80.1958C111.017 80.3388 110.684 80.3508 110.791 80.4958C111.261 81.0908 113.735 85.0638 112.653 86.3238C111.785 87.3348 109.822 86.8648 109.144 86.3888L107.425 85.1998L108.614 86.9188C109.145 87.6784 109.547 88.5204 109.803 89.4108C109.951 89.8156 110.01 90.247 109.979 90.6765C109.947 91.1061 109.824 91.5241 109.619 91.9028C109.425 92.2535 109.117 92.5269 108.746 92.6775C108.374 92.828 107.963 92.8465 107.579 92.7298C106.728 92.4484 105.961 91.9577 105.349 91.3028L103.606 89.5188L104.671 91.7428C104.97 92.361 105.19 93.0145 105.325 93.6878C105.477 94.3205 105.442 94.9834 105.225 95.5968C105.11 95.867 104.923 96.1 104.683 96.27C104.444 96.44 104.162 96.5403 103.869 96.5598C103.21 96.5033 102.581 96.2605 102.055 95.8598C100.9 95.0079 99.8121 94.0674 98.8023 93.0468C98.2793 92.5468 97.7493 92.0468 97.1963 91.5718C96.6668 91.0653 96.0364 90.6761 95.3463 90.4298C95.9954 90.7454 96.5771 91.1838 97.0593 91.7208C97.5703 92.2318 98.0523 92.7678 98.5403 93.3028C99.4987 94.4154 100.56 95.435 101.71 96.3478C102.325 96.8569 103.076 97.1735 103.869 97.2578C104.304 97.2549 104.729 97.1258 105.093 96.8862C105.456 96.6466 105.742 96.3067 105.915 95.9078C106.219 95.1528 106.289 94.3239 106.115 93.5288C105.98 92.7763 105.749 92.0446 105.425 91.3518L104.747 91.8158C105.457 92.6062 106.361 93.1968 107.37 93.5288C107.936 93.6947 108.541 93.6593 109.083 93.4288C109.606 93.1855 110.045 92.7922 110.344 92.2988C110.604 91.8187 110.759 91.2891 110.799 90.7447C110.839 90.2003 110.763 89.6537 110.576 89.1408C110.272 88.1648 109.808 87.2463 109.202 86.4228L108.679 86.9458C109.571 87.5408 111.7 88.2838 113.247 86.8868C115.014 84.8108 111.582 80.8678 110.904 80.1958Z"
          fill="#263238"/>
    <path d="M110.815 80.201C111.307 80.3877 111.824 80.498 112.349 80.528C112.559 80.5454 112.77 80.5066 112.96 80.4158C113.15 80.325 113.313 80.1853 113.431 80.011C113.633 79.5917 113.71 79.1228 113.651 78.661C113.615 78.15 113.551 77.614 113.461 77.061C113.815 77.5077 114.068 78.025 114.204 78.578C114.296 78.8769 114.328 79.1909 114.299 79.5022C114.269 79.8134 114.179 80.1158 114.032 80.392C113.842 80.6817 113.565 80.9042 113.241 81.028C112.933 81.1329 112.601 81.1512 112.283 81.081C111.712 80.9513 111.198 80.6431 110.814 80.201H110.815Z"
          fill="#263238"/>
    <path d="M97.6713 110.134L120.229 92.0237C120.229 92.0237 125.695 103.324 126.016 103.276C126.337 103.228 129.916 88.2347 135.853 78.8917C141.79 69.5487 143.216 79.6917 141.953 87.3917C140.69 95.0917 134.753 137.82 129.422 141.733C124.091 145.646 119.074 140.746 116.933 138.67C113.943 135.78 97.6713 110.134 97.6713 110.134Z"
          fill="#DD326E"/>
    <path d="M102.012 112.177C102.72 111.451 109.812 105.92 111.373 104.755L116.083 101.255C117.701 100.066 119.301 98.7547 121.013 97.6867C121.028 97.676 121.047 97.6714 121.065 97.6741C121.084 97.6767 121.1 97.6863 121.112 97.7008C121.123 97.7153 121.129 97.7337 121.127 97.7522C121.125 97.7706 121.116 97.7876 121.102 97.7997C119.615 99.1677 117.938 100.357 116.344 101.6C114.75 102.843 113.21 104.062 111.644 105.281C110.078 106.5 102.937 111.823 102.081 112.293C102.006 112.329 101.965 112.246 102.012 112.177Z"
          fill="#263238"/>
    <path d="M126.04 103.248C126.635 104.58 127.229 105.948 127.729 107.316C128.229 108.684 128.729 110.082 129.174 111.479C129.619 112.876 130.024 114.292 130.363 115.725C130.718 117.153 130.991 118.601 131.178 120.061C130.958 119.353 130.778 118.646 130.583 117.95C130.388 117.254 130.167 116.55 129.947 115.845L128.64 111.678L127.332 107.515L126.632 105.362C126.433 104.658 126.212 103.956 126.04 103.248Z"
          fill="#263238"/>
    <path d="M126.123 149.78C127.098 150.749 187.078 147.573 187.381 147.187C188.172 146.128 166.72 82.2948 152.66 72.1958C149.639 70.0248 141.515 72.9327 139.427 75.0267C138.119 76.3407 135.264 84.6377 133.408 91.4947C129.662 105.234 125.273 148.93 126.123 149.78Z"
          fill="white"/>
    <path d="M140.647 72.3327C138.268 74.1167 136.447 83.2227 141.884 84.4537C147.321 85.6847 152.363 77.1027 153.107 74.3427C153.851 71.5827 145.791 68.5147 140.647 72.3327Z"
          fill="#DD326E"/>
    <path d="M142.276 83.2051C145.648 83.6391 150.769 78.0191 152.571 73.6891C152.248 71.4121 151.799 69.1546 151.227 66.9271C150.793 64.7621 150.365 62.3421 150.127 60.0991L136.448 64.9791C137.544 67.6954 138.302 70.5355 138.708 73.4361C138.738 73.7447 138.738 74.0555 138.708 74.3641V74.5191C138.595 76.3121 139.017 82.7881 142.276 83.2051Z"
          fill="#D8958C"/>
    <path d="M149.479 60.3491C149.336 63.1921 148.26 73.4331 140.148 74.4681C139.667 74.5285 139.182 74.5522 138.697 74.5391C138.688 74.4879 138.688 74.4353 138.697 74.3841C138.721 74.0752 138.721 73.765 138.697 73.4561C138.287 70.5577 137.526 67.7199 136.431 65.0051L149.479 60.3491Z"
          fill="#263238"/>
    <path d="M150.359 43.3398C152.351 48.1808 151.091 62.8238 147.859 66.3738C143.159 71.5187 134.775 72.7618 130.249 66.9688C125.849 61.3488 127.828 42.2868 131.51 39.0158C136.924 34.1338 147.409 36.1908 150.359 43.3398Z"
          fill="#D8958C"/>
    <path d="M137.423 53.4561C137.423 53.4201 137.5 53.5101 137.494 53.5561C137.381 54.5431 137.423 55.6851 138.285 56.0841V56.143C137.197 55.895 137.161 54.3721 137.423 53.4561Z"
          fill="#263238"/>
    <path d="M138.393 52.499C139.987 52.499 139.856 55.699 138.393 55.693C136.93 55.687 137.055 52.493 138.393 52.499Z"
          fill="#263238"/>
    <path d="M131.887 53.25C131.887 53.214 131.81 53.298 131.81 53.333C131.81 54.326 131.62 55.456 130.71 55.748V55.807C131.815 55.704 132.035 54.194 131.887 53.25Z"
          fill="#263238"/>
    <path d="M131.045 52.1777C129.457 51.9937 129.201 55.1517 130.67 55.3537C132.139 55.5557 132.374 52.3437 131.045 52.1777Z"
          fill="#263238"/>
    <path d="M139.719 51.0898C139.304 50.9509 138.897 50.7879 138.5 50.6018C138.048 50.4904 137.644 50.2332 137.352 49.8698C137.283 49.7372 137.259 49.5853 137.285 49.4379C137.311 49.2905 137.385 49.1558 137.495 49.0548C137.743 48.8888 138.031 48.792 138.329 48.7744C138.627 48.7568 138.924 48.8191 139.19 48.9548C139.772 49.1465 140.261 49.547 140.564 50.0788C140.626 50.2039 140.65 50.3444 140.634 50.4831C140.617 50.6217 140.561 50.7526 140.471 50.8597C140.382 50.9669 140.263 51.0457 140.13 51.0865C139.996 51.1274 139.854 51.1285 139.719 51.0898Z"
          fill="#263238"/>
    <path d="M129.882 50.5239C130.322 50.4699 130.727 50.3459 131.161 50.2499C131.628 50.2171 132.07 50.0287 132.416 49.7149C132.507 49.5973 132.556 49.4529 132.556 49.3044C132.556 49.1558 132.507 49.0115 132.416 48.8939C132.199 48.6871 131.931 48.5421 131.639 48.474C131.348 48.406 131.043 48.4173 130.757 48.5069C130.154 48.5982 129.605 48.9095 129.217 49.3809C129.137 49.4946 129.09 49.6292 129.084 49.7685C129.078 49.9078 129.112 50.0459 129.182 50.1664C129.253 50.2868 129.356 50.3845 129.48 50.4477C129.605 50.5109 129.744 50.537 129.883 50.5229L129.882 50.5239Z"
          fill="#263238"/>
    <path d="M138.69 62.7219C138.446 62.9419 138.196 63.2509 137.834 63.2629C137.466 63.2435 137.107 63.1442 136.781 62.9719C136.775 62.9704 136.768 62.9706 136.762 62.9726C136.756 62.9746 136.75 62.9783 136.746 62.9832C136.741 62.9882 136.739 62.9942 136.737 63.0007C136.736 63.0072 136.737 63.0138 136.739 63.0199C136.87 63.223 137.054 63.3861 137.271 63.4911C137.488 63.5961 137.73 63.639 137.97 63.6149C138.174 63.5721 138.361 63.4693 138.506 63.3199C138.651 63.1704 138.748 62.981 138.785 62.7759C138.789 62.7638 138.788 62.7507 138.784 62.7389C138.779 62.7271 138.77 62.7172 138.759 62.7109C138.748 62.7046 138.735 62.7023 138.723 62.7043C138.71 62.7063 138.699 62.7125 138.69 62.7219Z"
          fill="#263238"/>
    <path d="M137.774 59.7131C137.508 60.0941 137.165 60.4154 136.768 60.6565C136.371 60.8975 135.927 61.0531 135.466 61.1131C135.072 61.17 134.672 61.17 134.277 61.1131C134.199 61.1078 134.122 61.0958 134.045 61.0771L133.831 61.0351C133.778 61.0231 133.731 60.9938 133.697 60.9517C133.662 60.9097 133.643 60.8574 133.641 60.8031C133.639 60.7698 133.639 60.7364 133.641 60.7031V60.6141C133.641 59.8531 133.778 58.6991 133.778 58.6991C133.493 58.8241 132.047 59.4071 132.078 59.0081C132.311 55.5873 132.893 52.1993 133.815 48.8971C133.845 48.7901 134.015 48.8201 133.993 48.8971C133.793 52.0731 133.041 55.1831 132.804 58.3651C133.317 58.1524 133.858 58.0143 134.41 57.9551C134.517 57.9911 134.136 60.1791 134.16 60.5241C134.159 60.5361 134.159 60.5481 134.16 60.5601C134.781 60.6497 135.413 60.6131 136.019 60.4526C136.625 60.2921 137.193 60.011 137.687 59.6261C137.762 59.5701 137.84 59.6361 137.774 59.7131Z"
          fill="#263238"/>
    <path d="M134.818 60.9317C135.256 61.4535 135.821 61.8531 136.459 62.0918C136.813 62.205 137.194 62.205 137.547 62.0918C138.32 61.8478 138.302 61.1287 138.142 60.5217C138.045 60.1981 137.911 59.8867 137.742 59.5938C136.936 60.3418 135.911 60.8108 134.818 60.9317Z"
          fill="#263238"/>
    <path d="M136.46 62.092C136.814 62.2053 137.194 62.2053 137.548 62.092C138.321 61.848 138.303 61.129 138.143 60.522C137.726 60.554 137.333 60.7269 137.027 61.0122C136.721 61.2974 136.521 61.6782 136.46 62.092Z"
          fill="#F392B9"/>
    <path d="M150.674 55.4839C151.031 54.2049 154.332 40.4189 153.969 38.9149C153.636 37.5469 152.137 38.1059 152.119 38.0289C152.101 37.9519 152.048 36.7029 151.274 36.2449C151.01 36.1305 150.726 36.0715 150.439 36.0715C150.151 36.0715 149.867 36.1305 149.603 36.2449C149.603 36.2449 149.371 34.9309 148.544 34.5739C148.267 34.4862 147.972 34.4724 147.688 34.534C147.405 34.5956 147.142 34.7303 146.926 34.9249C146.85 34.5756 146.69 34.2502 146.46 33.9766C146.23 33.7031 145.937 33.4897 145.606 33.3549C145.311 33.2693 144.996 33.281 144.708 33.3881C144.42 33.4953 144.174 33.6922 144.006 33.9499C144.006 33.9499 143.655 32.6949 142.817 32.4499C141.979 32.2049 141.211 33.1399 141.211 33.1399C141.087 32.8237 140.88 32.5467 140.613 32.3376C140.345 32.1284 140.026 31.9949 139.689 31.9509C139.362 31.9732 139.048 32.0926 138.789 32.2939C138.529 32.4951 138.335 32.7691 138.232 33.0809C138.071 32.7796 137.842 32.52 137.564 32.3228C137.285 32.1256 136.964 31.9962 136.626 31.9449C135.615 31.9149 135.306 33.1339 135.306 33.1339C135.306 33.1339 134.906 32.0399 133.974 32.1109C133.042 32.1819 132.832 33.4789 132.832 33.4789C132.832 33.4789 132.315 32.2899 131.22 32.6289C129.549 33.1699 129.341 41.1639 128.96 44.6369C128.96 44.6369 129.424 42.9779 130.149 42.9179C130.874 42.8579 131.386 43.9829 132.712 44.2799C134.597 44.6959 137.738 42.4959 140.337 43.0369C142.936 43.5779 144.737 46.2309 145.642 50.1739C146.636 54.7469 149.829 58.5179 150.674 55.4839Z"
          fill="#263238"/>
    <path d="M138.042 58.351C137.514 58.2548 137.009 58.0554 136.557 57.7641C136.106 57.4729 135.716 57.0955 135.41 56.6536C135.104 56.2117 134.889 55.7139 134.775 55.1886C134.662 54.6633 134.653 54.1208 134.749 53.5921C134.886 52.8423 135.23 52.1459 135.743 51.582C136.255 51.0181 136.916 50.6093 137.649 50.4021C138.383 50.1948 139.159 50.1974 139.891 50.4096C140.623 50.6218 141.281 51.035 141.79 51.6023C142.299 52.1696 142.638 52.8683 142.77 53.6189C142.902 54.3695 142.82 55.142 142.535 55.8486C142.249 56.5552 141.771 57.1676 141.155 57.6162C140.539 58.0647 139.809 58.3314 139.049 58.386C138.713 58.4152 138.375 58.4034 138.042 58.351ZM135.288 53.7121C135.164 54.3999 135.246 55.1092 135.525 55.7501C135.804 56.3911 136.267 56.9349 136.855 57.3128C137.443 57.6907 138.13 57.8857 138.829 57.873C139.528 57.8604 140.207 57.6408 140.781 57.2419C141.355 56.8431 141.798 56.2829 142.053 55.6323C142.309 54.9817 142.366 54.2699 142.217 53.587C142.068 52.9041 141.719 52.2808 141.216 51.7959C140.712 51.311 140.076 50.9864 139.388 50.8631C139.1 50.8089 138.807 50.7928 138.514 50.815C137.731 50.87 136.988 51.1848 136.404 51.7096C135.82 52.2343 135.428 52.9391 135.289 53.7121H135.288Z"
          fill="#DD326E"/>
    <path d="M129.442 57.923C127.771 57.846 126.498 55.954 126.599 53.712C126.629 52.6957 126.976 51.7141 127.592 50.905C127.836 50.5419 128.168 50.2476 128.559 50.0507C128.949 49.8538 129.383 49.7609 129.82 49.781C130.256 49.8011 130.68 49.9336 131.051 50.1655C131.421 50.3974 131.726 50.7211 131.934 51.105C132.474 51.9672 132.729 52.9771 132.663 53.992C132.563 56.121 131.263 57.81 129.689 57.923H129.442ZM128.015 51.2441C127.473 51.9636 127.169 52.8351 127.147 53.736C127.058 55.681 128.099 57.3041 129.466 57.3821C130.833 57.4601 132.029 55.9131 132.119 53.9681C132.176 53.0687 131.954 52.1737 131.483 51.405C131.309 51.1036 131.064 50.8485 130.77 50.6613C130.476 50.4741 130.141 50.3601 129.794 50.329H129.61C129.296 50.3622 128.991 50.4609 128.717 50.6186C128.442 50.7764 128.204 50.9897 128.016 51.245L128.015 51.2441Z"
          fill="#DD326E"/>
    <path d="M134.866 54.0919L135.235 53.6919C134.64 53.1449 133.249 52.3839 132.202 53.4009L132.583 53.7879C133.516 52.8729 134.813 54.0389 134.866 54.0919Z"
          fill="#DD326E"/>
    <path d="M152.958 55.977L153.458 55.751C153.351 55.519 152.381 53.485 151.18 53.235C149.979 52.985 142.723 53.342 142.408 53.36V53.901C144.508 53.801 150.14 53.586 151.038 53.764C151.936 53.942 152.702 55.416 152.958 55.977Z"
          fill="#DD326E"/>
    <path d="M147.45 54.9791C147.45 54.9791 150.364 50.0721 152.565 51.0791C154.766 52.0861 152.821 59.0251 150.406 60.1371C150.106 60.3012 149.776 60.4029 149.436 60.436C149.096 60.469 148.753 60.4328 148.427 60.3294C148.101 60.226 147.8 60.0577 147.541 59.8345C147.282 59.6114 147.071 59.338 146.921 59.0311L147.45 54.9791Z"
          fill="#D8958C"/>
    <path d="M151.935 53.0518C151.941 53.0547 151.946 53.0593 151.95 53.065C151.954 53.0708 151.956 53.0775 151.956 53.0843C151.956 53.0911 151.954 53.0977 151.95 53.1035C151.946 53.1092 151.941 53.1138 151.935 53.1168C151.167 53.576 150.503 54.1911 149.986 54.9223C149.469 55.6536 149.111 56.4849 148.935 57.3628C149.023 57.1807 149.15 57.0199 149.306 56.8914C149.462 56.7629 149.644 56.6697 149.84 56.6183C150.035 56.5669 150.24 56.5585 150.439 56.5936C150.638 56.6287 150.827 56.7065 150.993 56.8218C151.004 56.8281 151.013 56.8381 151.017 56.85C151.021 56.8618 151.021 56.8749 151.017 56.8868C151.013 56.8987 151.004 56.9087 150.993 56.9151C150.982 56.9215 150.97 56.9239 150.957 56.9218C150.643 56.8488 150.315 56.8741 150.016 56.9943C149.717 57.1145 149.462 57.3238 149.286 57.5938C148.996 58.0481 148.757 58.5326 148.572 59.0388C148.501 59.1998 148.215 59.1387 148.257 58.9557C148.26 58.9419 148.26 58.9276 148.257 58.9138C148.075 56.6918 149.568 53.4558 151.935 53.0518Z"
          fill="#263238"/>
    <path d="M161.125 76.371C180.531 89.717 194.537 110.64 195.887 115.029C199.152 125.734 204.023 144.587 204.772 153.057C205.052 156.191 180.917 155.608 180.513 152.272C179.258 141.816 174.762 119.072 174.649 118.687C173.849 115.933 166.995 104.021 159.949 91.0611C152.903 78.1011 152.946 70.751 161.125 76.371Z"
          fill="#D8958C"/>
    <path d="M182.434 185.304C183.167 185.523 183.949 185.512 184.675 185.273C185.401 185.034 186.037 184.579 186.496 183.968C187.317 184.973 188.463 185.659 189.737 185.907C192.003 186.24 193.514 182.832 193.514 182.832C194.585 183.695 195.89 184.218 197.261 184.332C199.461 184.432 201.472 181.21 201.472 181.21C202.895 181.454 204.358 181.184 205.6 180.449C207.688 179.105 208.716 172.449 208.681 168.703C208.646 164.957 205.035 154.37 204.553 152.276H180.507C180.507 152.276 175.886 169.113 176.558 173.514C177.117 177.245 179.663 184.358 182.434 185.304Z"
          fill="#D8958C"/>
    <path d="M186.108 183.815C184.568 180.015 184.229 175.97 183.664 171.95C183.664 171.931 183.672 171.913 183.685 171.899C183.699 171.886 183.717 171.878 183.736 171.878C183.755 171.878 183.773 171.886 183.786 171.899C183.8 171.913 183.807 171.931 183.807 171.95C184.318 175.95 185.621 179.807 186.299 183.779C186.298 183.801 186.289 183.822 186.274 183.838C186.26 183.855 186.24 183.866 186.218 183.87C186.196 183.874 186.174 183.871 186.154 183.861C186.135 183.851 186.119 183.835 186.109 183.815H186.108Z"
          fill="#263238"/>
    <path d="M193.198 182.758C192.932 181.861 192.785 180.933 192.758 179.998C192.667 179.01 192.596 178.019 192.544 177.024C192.431 175.044 192.36 173.063 192.354 171.077C192.353 171.067 192.354 171.057 192.357 171.048C192.36 171.039 192.365 171.03 192.371 171.023C192.378 171.015 192.386 171.01 192.394 171.006C192.403 171.002 192.413 171 192.423 171C192.433 171 192.442 171.002 192.451 171.006C192.46 171.01 192.468 171.015 192.474 171.023C192.481 171.03 192.486 171.039 192.489 171.048C192.492 171.057 192.492 171.067 192.491 171.077C192.61 173.052 192.753 175.02 192.949 176.983C193.049 177.97 193.157 178.952 193.27 179.957C193.441 180.876 193.508 181.812 193.47 182.746C193.461 182.774 193.444 182.798 193.421 182.816C193.398 182.834 193.37 182.844 193.34 182.845C193.311 182.846 193.282 182.839 193.258 182.823C193.233 182.808 193.214 182.785 193.202 182.758H193.198Z"
          fill="#263238"/>
    <path d="M201.465 181.128C201.235 180.313 201.146 179.464 201.203 178.618C201.167 177.718 201.132 176.834 201.09 175.912C201.007 174.128 200.918 172.312 200.769 170.506C200.769 170.487 200.777 170.469 200.79 170.456C200.804 170.442 200.822 170.435 200.841 170.435C200.86 170.435 200.878 170.442 200.891 170.456C200.905 170.469 200.912 170.487 200.912 170.506C201.067 172.332 201.251 174.158 201.4 175.989L201.6 178.683C201.732 179.498 201.718 180.329 201.558 181.139C201.554 181.148 201.547 181.155 201.538 181.159C201.529 181.163 201.519 181.165 201.51 181.164C201.5 181.163 201.491 181.158 201.484 181.152C201.477 181.145 201.471 181.137 201.469 181.127L201.465 181.128Z"
          fill="#263238"/>
    <path d="M179.358 152.563L205.735 150.434C205.735 150.434 199.924 122.023 196.772 114.345C193.62 106.667 177.925 87.7249 161.558 76.4959C150.424 68.8649 151.114 75.3719 156.258 85.4819C161.402 95.5919 173.505 118.734 174.1 120.572C174.695 122.41 179.358 152.563 179.358 152.563Z"
          fill="#DD326E"/>
    <path d="M179.822 147.122C180.809 146.89 189.76 146.069 191.717 145.933L197.563 145.533C199.579 145.396 201.625 145.164 203.647 145.188C203.658 145.185 203.669 145.185 203.68 145.187C203.69 145.189 203.7 145.194 203.709 145.2C203.718 145.207 203.725 145.215 203.73 145.225C203.734 145.235 203.737 145.246 203.737 145.257C203.737 145.267 203.734 145.278 203.73 145.288C203.725 145.298 203.718 145.306 203.709 145.313C203.7 145.32 203.69 145.324 203.68 145.326C203.669 145.328 203.658 145.328 203.647 145.325C201.661 145.676 199.603 145.777 197.598 145.967L191.651 146.526C189.665 146.704 180.797 147.326 179.816 147.258C179.739 147.247 179.757 147.14 179.822 147.122Z"
          fill="#263238"/>
    <path d="M57.4053 190.174C58.2243 195.406 55.2823 200.932 55.2823 200.932C55.2823 200.932 49.0824 201.854 44.4314 199.324C40.5314 197.24 39.1014 193.004 41.0634 190.459C43.9174 186.811 49.2914 192.469 49.2914 192.469C49.2914 192.469 45.7754 185.502 50.1784 184.045C53.2524 183.019 56.7533 185.809 57.4053 190.174Z"
          fill="#DBDBDB"/>
    <path d="M68.2213 177.291C65.8773 180.405 61.4503 181.704 61.4503 181.704C61.4503 181.704 57.7823 178.914 56.7233 175.163C55.8403 172.035 57.3163 169.108 59.6653 168.853C63.0533 168.48 62.8323 174.217 62.8323 174.217C62.8323 174.217 64.6953 168.789 67.7323 170.358C69.8523 171.432 70.1733 174.683 68.2213 177.291Z"
          fill="#DBDBDB"/>
    <path d="M239.254 150.97C237.643 151.79 235.91 152.346 234.121 152.617C229.832 153.281 225.451 152.303 221.851 149.879C218.25 147.455 215.697 143.762 214.699 139.539C213.701 135.315 214.332 130.87 216.466 127.091C218.601 123.312 222.081 120.476 226.214 119.15C230.347 117.824 234.827 118.105 238.762 119.937C242.697 121.769 245.796 125.016 247.442 129.032C249.088 133.048 249.159 137.537 247.642 141.603C246.124 145.67 243.129 149.014 239.254 150.97Z"
          fill="#DBDBDB"/>
    <path d="M236.205 134.199C236.124 135.126 235.769 136.009 235.186 136.735C234.602 137.461 233.817 137.998 232.929 138.277C232.04 138.557 231.089 138.566 230.195 138.305C229.301 138.043 228.505 137.523 227.907 136.809C227.309 136.095 226.937 135.219 226.837 134.294C226.736 133.368 226.913 132.433 227.344 131.607C227.776 130.782 228.442 130.103 229.259 129.657C230.076 129.21 231.008 129.016 231.935 129.099C233.177 129.21 234.325 129.809 235.125 130.765C235.926 131.722 236.314 132.956 236.205 134.199Z"
          fill="white"/>
    <path d="M238.505 147.429L238.336 149.365C236.89 150.101 235.335 150.6 233.73 150.843C231.703 151.161 229.633 151.07 227.642 150.576C225.651 150.082 223.779 149.194 222.136 147.965L222.301 146.033C222.393 144.969 222.693 143.933 223.185 142.985C223.676 142.036 224.35 141.194 225.167 140.506C225.985 139.818 226.929 139.298 227.948 138.975C228.966 138.653 230.038 138.534 231.102 138.625C232.167 138.717 233.202 139.017 234.151 139.509C235.099 140 235.941 140.674 236.629 141.491C237.317 142.309 237.837 143.253 238.16 144.272C238.483 145.29 238.602 146.362 238.51 147.426L238.505 147.429Z"
          fill="white"/>
    <path d="M254.322 7.95071C257.769 6.48213 261.573 6.06859 265.255 6.76238C268.937 7.45616 272.33 9.22612 275.006 11.8484C277.682 14.4707 279.52 17.8276 280.288 21.4945C281.056 25.1615 280.719 28.9738 279.32 32.4494C277.921 35.925 275.523 38.9078 272.43 41.0205C269.336 43.1333 265.685 44.2812 261.938 44.319C258.192 44.3568 254.519 43.2829 251.383 41.233C248.247 39.1831 245.789 36.2493 244.321 32.8026C242.351 28.1808 242.299 22.9659 244.174 18.3053C246.05 13.6447 249.7 9.92002 254.322 7.95071V7.95071Z"
          fill="#EE7729"/>
    <path fill-rule="evenodd" clip-rule="evenodd"
          d="M259.153 32.9069C258.653 32.5919 258.219 32.1339 257.547 32.1989C257.291 32.1989 257.347 32.0089 257.347 31.8719V24.3009C257.347 24.1229 257.347 23.9679 257.561 23.8669C259.488 22.8979 260.321 20.9829 261.504 19.3529C262.11 18.541 262.546 17.6155 262.786 16.6317C263.027 15.6478 263.067 14.6256 262.904 13.6259C262.821 13.0609 263.088 12.8049 263.604 12.6859C263.862 12.5996 264.14 12.5975 264.399 12.6799C264.657 12.7622 264.883 12.9247 265.043 13.1439C265.598 14.1748 265.97 15.2936 266.143 16.4509C266.142 17.4053 266.024 18.3559 265.792 19.2819C265.703 19.9819 265.542 20.6619 265.411 21.3639C265.578 21.4829 265.774 21.4229 265.958 21.4229H272.351C273.251 21.4229 273.689 21.6789 273.814 22.2729C273.883 22.6403 273.829 23.0199 273.661 23.3539C273.494 23.6879 273.222 23.958 272.886 24.1229C272.725 24.1999 272.434 24.1229 272.416 24.3789C272.398 24.6349 272.696 24.6049 272.844 24.7119C273.611 25.2409 273.468 26.3299 272.576 26.9599C272.362 27.1149 271.946 27.0429 271.934 27.3599C271.922 27.6769 272.321 27.6099 272.499 27.7819C272.633 27.9597 272.724 28.1655 272.766 28.3836C272.808 28.6018 272.8 28.8266 272.743 29.0413C272.686 29.256 272.581 29.4548 272.435 29.623C272.29 29.7911 272.109 29.9241 271.904 30.0119C271.777 30.0523 271.652 30.1001 271.529 30.1549C271.422 30.2259 271.321 30.3099 271.529 30.4549C271.736 30.5614 271.909 30.7226 272.029 30.9209C272.15 31.1191 272.214 31.3468 272.214 31.5789C272.214 31.811 272.15 32.0387 272.029 32.237C271.909 32.4352 271.736 32.5964 271.529 32.7029L271.249 32.9029C270.913 33.1082 270.517 33.1961 270.125 33.1529H260.093C259.928 33.1804 259.759 33.1727 259.597 33.1303C259.435 33.0879 259.284 33.0118 259.153 32.9069Z"
          fill="white"/>
    <path fill-rule="evenodd" clip-rule="evenodd"
          d="M249.656 28.458V23.647C249.656 23.326 249.686 23.165 250.084 23.165H255.948C256.335 23.165 256.394 23.29 256.388 23.629V33.311C256.388 33.721 256.275 33.834 255.865 33.828C253.97 33.804 252.075 33.804 250.179 33.828C249.703 33.828 249.638 33.667 249.644 33.233C249.668 31.665 249.656 30.065 249.656 28.458Z"
          fill="white"/>
    <defs>
        <linearGradient id="paint0_linear_1_7239" x1="82.2981" y1="11.1177" x2="98.1919" y2="85.988"
                        gradientUnits="userSpaceOnUse">
            <stop stop-color="#DD326E"/>
            <stop offset="1" stop-color="#5151E5"/>
        </linearGradient>
        <linearGradient id="paint1_linear_1_7239" x1="83.7603" y1="27.043" x2="83.7603" y2="76.704"
                        gradientUnits="userSpaceOnUse">
            <stop stop-color="#DD326E"/>
            <stop offset="1" stop-color="#6F1937"/>
        </linearGradient>
    </defs>
</svg>
